<mxfile host="app.diagrams.net" modified="2023-04-26T14:08:37.920Z" agent="Mozilla/5.0 (X11; Linux x86_64) AppleWebKit/537.36 (KHTML, like Gecko) Chrome/111.0.0.0 Safari/537.36" version="21.1.4" etag="ce_0BHIbLtCuYhnuXaLm" type="github">
  <diagram name="Page-1" id="ixbjyMRgIoaiPXeNXxI4">
    <mxGraphModel>
      <root>
        <mxCell id="0" />
        <mxCell id="1" parent="0" />
      </root>
    </mxGraphModel>
  </diagram>
</mxfile>
